HIERARCHY
ROOT Hips
{
	OFFSET 0.00000 0.00000 0.00000
	CHANNELS 6 Xposition Yposition Zposition Zrotation Yrotation Xrotation 
	JOINT LHipJoint
	{
		OFFSET 0 0 0
		CHANNELS 3 Zrotation Yrotation Xrotation
		JOINT LeftUpLeg
		{
			OFFSET 1.54859 -1.61379 0.86856
			CHANNELS 3 Zrotation Yrotation Xrotation
			JOINT LeftLeg
			{
				OFFSET 2.25087 -6.18423 0.00000
				CHANNELS 3 Zrotation Yrotation Xrotation
				JOINT LeftFoot
				{
					OFFSET 2.40328 -6.60297 0.00000
					CHANNELS 3 Zrotation Yrotation Xrotation
					JOINT LeftToeBase
					{
						OFFSET 0.17435 -0.47901 2.02453
						CHANNELS 3 Zrotation Yrotation Xrotation
						End Site
						{
							OFFSET 0.00000 -0.00000 1.04844
						}
					}
				}
			}
		}
	}
	JOINT RHipJoint
	{
		OFFSET 0 0 0
		CHANNELS 3 Zrotation Yrotation Xrotation
		JOINT RightUpLeg
		{
			OFFSET -1.54669 -1.61379 0.86856
			CHANNELS 3 Zrotation Yrotation Xrotation
			JOINT RightLeg
			{
				OFFSET -2.28132 -6.26789 0.00000
				CHANNELS 3 Zrotation Yrotation Xrotation
				JOINT RightFoot
				{
					OFFSET -2.51636 -6.91365 0.00000
					CHANNELS 3 Zrotation Yrotation Xrotation
					JOINT RightToeBase
					{
						OFFSET -0.15124 -0.41552 2.21090
						CHANNELS 3 Zrotation Yrotation Xrotation
						End Site
						{
							OFFSET -0.00000 -0.00000 1.13399
						}
					}
				}
			}
		}
	}
	JOINT LowerBack
	{
		OFFSET 0 0 0
		CHANNELS 3 Zrotation Yrotation Xrotation
		JOINT Spine
		{
			OFFSET -0.04287 2.26161 -0.25690
			CHANNELS 3 Zrotation Yrotation Xrotation
			JOINT Spine1
			{
				OFFSET 0.02248 2.28395 -0.10140
				CHANNELS 3 Zrotation Yrotation Xrotation
				JOINT Neck
				{
					OFFSET 0 0 0
					CHANNELS 3 Zrotation Yrotation Xrotation
					JOINT Neck1
					{
						OFFSET -0.11644 1.38496 0.11345
						CHANNELS 3 Zrotation Yrotation Xrotation
						JOINT Head
						{
							OFFSET 0.29383 1.36600 0.06642
							CHANNELS 3 Zrotation Yrotation Xrotation
							End Site
							{
								OFFSET 0.11075 1.41395 -0.00294
							}
						}
					}
				}
				JOINT LeftShoulder
				{
					OFFSET 0 0 0
					CHANNELS 3 Zrotation Yrotation Xrotation
					JOINT LeftArm
					{
						OFFSET 3.51628 0.59542 -0.30346
						CHANNELS 3 Zrotation Yrotation Xrotation
						JOINT LeftForeArm
						{
							OFFSET 4.76405 -0.00000 0.00000
							CHANNELS 3 Zrotation Yrotation Xrotation
							JOINT LeftHand
							{
								OFFSET 3.13759 -0.00000 -0.00000
								CHANNELS 3 Zrotation Yrotation Xrotation
								JOINT LeftFingerBase
								{
									OFFSET 0 0 0
									CHANNELS 3 Zrotation Yrotation Xrotation
									JOINT LeftHandIndex1
									{
										OFFSET 0.73226 -0.00000 -0.00000
										CHANNELS 3 Zrotation Yrotation Xrotation
										End Site
										{
											OFFSET 0.59037 -0.00000 -0.00000
										}
									}
								}
								JOINT LThumb
								{
									OFFSET 0 0 0
									CHANNELS 3 Zrotation Yrotation Xrotation
									End Site
									{
										OFFSET 0.59938 -0.00000 0.59938
									}
								}
							}
						}
					}
				}
				JOINT RightShoulder
				{
					OFFSET 0 0 0
					CHANNELS 3 Zrotation Yrotation Xrotation
					JOINT RightArm
					{
						OFFSET -3.30990 0.84213 -0.36430
						CHANNELS 3 Zrotation Yrotation Xrotation
						JOINT RightForeArm
						{
							OFFSET -5.10161 -0.00000 -0.00000
							CHANNELS 3 Zrotation Yrotation Xrotation
							JOINT RightHand
							{
								OFFSET -3.23267 -0.00000 -0.00000
								CHANNELS 3 Zrotation Yrotation Xrotation
								JOINT RightFingerBase
								{
									OFFSET 0 0 0
									CHANNELS 3 Zrotation Yrotation Xrotation
									JOINT RightHandIndex1
									{
										OFFSET -0.70200 -0.00000 -0.00000
										CHANNELS 3 Zrotation Yrotation Xrotation
										End Site
										{
											OFFSET -0.56597 -0.00000 -0.00000
										}
									}
								}
								JOINT RThumb
								{
									OFFSET 0 0 0
									CHANNELS 3 Zrotation Yrotation Xrotation
									End Site
									{
										OFFSET -0.57461 -0.00000 0.57461
									}
								}
							}
						}
					}
				}
			}
		}
	}
}
MOTION
Frames: 9
Frame Time: 0.0555556
0.00 0.00 0.00 -59.6914 65.2770 -34.5299 0.0000 0.0000 0.0000 -22.5465 -6.2440 -64.9441 8.6244 16.5599 54.7819 0.9698 -1.1936 -18.2507 1.7267 8.2721 23.5435 0.0000 0.0000 0.0000 22.9767 -14.6777 10.8738 -8.0290 -16.1405 52.6669 -0.0003 -0.1354 -0.3845 -8.0417 16.1498 -52.7127 5.5540 -0.6431 20.7672 2.6568 0.8349 10.2010 -0.4894 0.7657 -0.5010 -6.7583 1.7564 -7.7420 18.7068 6.2979 -18.1896 7.0119 3.1694 -4.8104 0.0000 0.0000 0.0000 -90.2616 18.3222 37.5845 21.0789 -31.9204 -6.0916 -0.0000 0.0000 -16.4798 22.2172 28.3200 10.9659 -7.1250 0.0000 -0.0000 -9.7270 59.9209 -3.5623 0.0000 0.0000 0.0000 90.1586 5.8385 2.6594 -92.1950 59.9818 -61.9008 0.0000 -0.0000 -57.6137 -20.4475 28.1070 -9.9625 7.1250 -0.0000 -0.0000 5.8734 -0.4329 5.8598
0.00 0.00 0.00 -55.6884 68.4911 -31.6487 0.0000 0.0000 0.0000 -25.4474 -6.4797 -59.3975 10.0944 17.4626 59.8035 1.4354 -1.3977 -22.2463 1.3143 7.2616 20.4926 0.0000 0.0000 0.0000 17.9596 -15.4039 1.3233 -15.8546 -19.5829 77.7981 0.0485 -4.3295 -3.5731 -7.1278 15.4386 -49.3560 0.7048 -1.1914 20.7765 1.3178 -0.7996 10.1082 1.1627 -0.1887 -0.6547 -6.9393 2.5213 -7.4793 19.1916 7.7651 -19.3681 7.1882 3.8702 -5.4513 0.0000 0.0000 0.0000 -89.4626 6.8844 33.8558 17.0113 -26.8727 -4.0925 -0.0000 0.0000 -10.4248 23.6031 27.6764 11.4726 -7.1250 0.0000 -0.0000 -7.8334 59.5946 -2.8020 0.0000 0.0000 0.0000 92.3901 -1.5567 4.4942 -103.8271 59.2651 -71.9451 0.0000 -0.0000 -61.6850 -20.6131 26.0823 -9.3902 7.1250 -0.0000 -0.0000 5.5487 -2.4830 5.3285
0.00 0.00 0.00 -52.8300 71.1121 -30.2494 0.0000 0.0000 0.0000 -29.2948 -3.0756 -51.9798 10.3192 17.5855 60.5500 1.9304 -4.1918 -25.2857 0.4990 4.5289 12.5697 0.0000 0.0000 0.0000 13.7321 -14.5964 -8.7797 -23.0700 -19.7725 99.0089 0.0267 -4.9085 -6.0054 -5.4831 13.9080 -42.8703 -2.0050 -1.7133 21.6327 0.1791 -2.0030 9.8316 1.7635 -0.8341 -1.2958 -7.7637 2.3824 -5.9056 19.8245 7.9052 -20.7957 7.5647 3.8380 -6.2392 -0.0000 -0.0000 0.0000 -88.7389 -4.7896 25.2188 14.0137 -22.7543 -2.8334 -0.0000 0.0000 -0.5064 22.9300 28.7604 11.5050 -7.1250 0.0000 -0.0000 -9.1755 60.5394 -3.4935 -0.0000 -0.0000 0.0000 94.5411 -7.5574 5.5402 -111.3937 58.1979 -78.4154 0.0000 -0.0000 -63.3423 -20.0267 23.4663 -8.2586 7.1250 -0.0000 -0.0000 5.6523 -5.2828 5.1335
0.00 0.00 0.00 -49.7959 73.6995 -27.6480 0.0000 0.0000 0.0000 -32.8666 2.4304 -41.9459 9.1229 16.8861 56.5141 2.0696 -8.0978 -25.8392 0.0961 1.9989 5.5027 0.0000 0.0000 0.0000 9.9605 -9.9377 -26.9726 -29.7341 -17.5567 119.6267 -0.2196 -3.0657 -10.5291 -4.1274 12.3280 -36.9024 -4.5334 -2.4118 21.7512 -0.1993 -3.4772 8.9296 3.1377 -1.6087 -2.1111 -8.3842 3.0874 -6.4097 19.8283 8.4230 -18.3808 7.5945 4.2050 -5.4943 -0.0000 -0.0000 0.0000 -90.8154 -13.7417 18.8249 19.8320 -30.4394 -5.4460 -0.0000 0.0000 -7.1715 31.3940 30.5074 17.2129 -7.1250 0.0000 -0.0000 0.1625 64.5959 0.0771 -0.0000 -0.0000 0.0000 94.8668 -11.1549 7.3326 -118.9127 56.5928 -84.7527 0.0000 -0.0000 -68.8434 -19.8528 20.4451 -7.1883 7.1250 -0.0000 -0.0000 5.5211 -8.4408 4.6732
0.00 0.00 0.00 -62.5679 78.4551 -39.9478 0.0000 0.0000 0.0000 -32.4529 9.0059 -19.2453 4.7690 13.1188 39.8148 0.7805 -9.6845 -16.1588 0.3284 -3.6832 -10.1871 0.0000 0.0000 0.0000 11.2342 6.8091 -54.2082 -29.6845 -17.5835 119.4623 -0.1949 -9.5943 -16.5701 -4.8432 13.2050 -40.1409 -3.9290 -4.9540 19.4660 1.9977 -6.5893 8.0019 5.6294 -3.2226 -1.4753 -8.7766 4.3547 -7.3942 17.5013 9.3479 -15.8684 6.7991 4.8343 -4.6415 0.0000 -0.0000 0.0000 -91.9092 -19.1063 32.1288 44.9862 -50.7617 -22.2281 -0.0000 0.0000 -16.3684 29.6242 27.9679 14.9320 -7.1250 0.0000 -0.0000 -0.9690 61.3952 -0.3868 0.0000 -0.0000 0.0000 90.6408 -7.9133 9.7021 -124.1531 55.0977 -89.0906 0.0000 -0.0000 -57.2070 -15.9691 15.4996 -4.3730 7.1250 -0.0000 -0.0000 7.8515 -13.9972 5.7749
0.00 0.00 0.00 -65.1732 78.2983 -42.7613 0.0000 0.0000 0.0000 -29.9897 12.6661 -5.0571 2.3171 9.4974 27.3641 -0.0372 -3.7009 -0.1593 0.3074 -3.5646 -9.8548 0.0000 0.0000 0.0000 7.7125 17.0996 -63.2728 -24.4107 -19.5270 102.9943 -0.1058 -8.7356 -14.2604 -6.1335 14.5564 -45.5151 -4.1466 -5.5516 17.6734 4.3542 -7.3605 7.3342 8.2505 -3.7105 -0.7972 -7.5093 5.6382 -8.1693 13.4789 9.9336 -12.5615 5.2658 5.2047 -3.3995 0.0000 -0.0000 0.0000 -90.0011 -14.7785 40.6610 70.8177 -58.5630 -43.4678 -0.0000 0.0000 -9.4721 35.5024 18.7423 12.9098 -7.1250 0.0000 -0.0000 7.6219 52.4471 1.4037 0.0000 -0.0000 0.0000 85.5244 -1.3307 13.1408 -123.0003 55.4560 -88.1431 0.0000 -0.0000 -49.0409 -16.7600 15.6804 -4.6533 7.1250 -0.0000 -0.0000 7.3236 -13.7362 5.4205
0.00 0.00 0.00 -63.4069 78.3249 -41.3938 0.0000 0.0000 0.0000 -29.4127 12.8367 7.7892 0.8602 5.9143 16.5359 0.0300 4.3403 4.0799 0.2170 -2.9989 -8.2757 0.0000 0.0000 0.0000 4.4225 21.2886 -66.2580 -18.4303 -19.9408 85.4060 -0.2250 -6.2849 -13.4101 -7.0226 15.3509 -48.9597 -4.8392 -5.7428 16.4386 5.8799 -7.6916 6.8635 10.2391 -3.9635 -0.2575 -5.8841 6.3069 -8.7935 10.1223 10.0474 -10.0927 4.0118 5.2713 -2.3694 -0.0000 -0.0000 0.0000 -88.2220 -10.0701 45.6911 91.4668 -59.9919 -61.2702 -0.0000 0.0000 -5.8327 37.6891 17.7088 13.2248 -7.1250 0.0000 -0.0000 9.9832 51.6837 1.6570 -0.0000 -0.0000 0.0000 83.1655 5.1384 15.6420 -122.8462 55.5025 -88.0161 0.0000 -0.0000 -41.0546 -15.3987 14.7931 -4.0226 7.1250 -0.0000 -0.0000 8.2267 -14.7704 5.9198
0.00 0.00 0.00 -58.9804 78.5108 -36.8731 0.0000 0.0000 0.0000 -30.8125 12.7574 19.8099 0.1587 2.5666 7.0744 -0.3858 14.6865 5.1073 0.5596 -4.7916 -13.3152 0.0000 0.0000 0.0000 2.0899 22.4182 -67.3864 -11.8774 -18.3383 65.5996 -0.3106 -1.7483 -11.3149 -7.1961 15.4948 -49.6122 -4.3933 -5.8795 14.5248 6.5770 -7.8111 6.3985 10.5527 -4.0564 0.3196 -4.1684 6.5977 -9.2006 6.8992 9.8992 -8.7368 3.0372 5.1848 -1.8404 -0.0000 0.0000 0.0000 -86.4606 -5.7716 50.4106 101.4907 -59.4952 -69.9344 -0.0000 0.0000 -8.4202 39.4001 15.6121 12.4654 -7.1250 0.0000 -0.0000 11.7008 49.4992 1.3142 -0.0000 0.0000 0.0000 83.7651 12.3658 18.7979 -124.0124 55.1423 -88.9752 0.0000 -0.0000 -31.4199 -14.1257 14.5297 -3.6127 7.1250 -0.0000 -0.0000 9.0882 -15.1446 6.4815
0.00 0.00 0.00 -53.4931 81.5028 -32.5466 0.0000 0.0000 0.0000 -34.9263 10.3435 19.2318 2.0393 8.9475 25.6314 -0.0315 7.0900 4.1829 1.0376 -6.4785 -18.1792 0.0000 0.0000 0.0000 2.5517 18.2419 -64.2792 -5.8124 -14.2441 44.2241 -0.1248 4.4595 -6.5681 -7.6169 15.8301 -51.1706 -5.6042 -6.2060 14.6064 7.3370 -8.3864 5.7848 12.2183 -4.3748 0.0725 -3.6039 6.8462 -8.9777 3.7995 9.9769 -9.1217 1.8933 5.2099 -1.7859 -0.0000 0.0000 0.0000 -87.1911 0.1098 55.0603 93.9479 -59.9410 -63.4183 -0.0000 0.0000 -10.9318 41.0826 15.2719 12.9330 -7.1250 0.0000 -0.0000 13.4236 49.4149 1.4854 -0.0000 0.0000 0.0000 87.0985 21.3595 27.9047 -125.7511 54.5717 -90.3970 0.0000 -0.0000 -14.2021 -14.7577 14.3946 -3.7467 7.1250 -0.0000 -0.0000 8.6588 -15.2305 6.1517
